<svg height="512" viewBox="0 0 512 512" width="512" xmlns="http://www.w3.org/2000/svg"><g id="filled_outline" data-name="filled outline"><path d="m200 56h-64l-24-32h64z" fill="#d18d28"/><rect fill="#fbb540" height="48" rx="8" width="464" x="24" y="168"/><path d="m216 168h-48l-75.3-112.954a19.969 19.969 0 0 1 16.613-31.046 19.968 19.968 0 0 1 16.615 8.892z" fill="#d18d28"/><path d="m320 168h-48l-96-144h37.312a19.968 19.968 0 0 1 16.616 8.893z" fill="#d18d28"/><path d="m40 216 19.914 172.585a40 40 0 0 0 39.736 35.415h312.7a40 40 0 0 0 39.736-35.415l19.914-172.585zm60.144 159.623a16 16 0 0 1 -17.644-14.171l-10.4-95.434a16 16 0 1 1 31.811-3.47l10.408 95.434a16 16 0 0 1 -14.175 17.641zm75.856-15.623a16 16 0 0 1 -32 0v-96a16 16 0 0 1 32 0zm64 0a16 16 0 0 1 -32 0v-96a16 16 0 0 1 32 0zm64 0a16 16 0 0 1 -32 0v-96a16 16 0 0 1 32 0zm64 0a16 16 0 0 1 -32 0v-96a16 16 0 0 1 32 0zm71.9-93.982-10.4 95.434a16 16 0 1 1 -31.811-3.47l10.408-95.434a16 16 0 1 1 31.811 3.47z" fill="#ea9d2d"/><circle cx="416" cy="416" fill="#2cbff4" r="72"/><path d="m456 400h-24v-24h-32v24h-24v32h24v24h32v-24h24z" fill="#0292c9"/><path d="m32 224h.87l19.1 165.5a47.99 47.99 0 0 0 47.68 42.5h237.96a80 80 0 1 0 126.716-79.7l14.804-128.3h.87a16.019 16.019 0 0 0 16-16v-32a16.019 16.019 0 0 0 -16-16h-155.719l-87.7-131.545a27.913 27.913 0 0 0 -23.269-12.455h-104a27.969 27.969 0 0 0 -23.271 43.483l67.011 100.517h-121.052a16.019 16.019 0 0 0 -16 16v32a16.019 16.019 0 0 0 16 16zm304 192h-236.35a31.993 31.993 0 0 1 -31.789-28.332l-18.885-163.668h414.048l-13.762 119.271a79.36 79.36 0 0 0 -9.342-3.615l7.937-72.771a24 24 0 0 0 -47.717-5.2l-8.519 78.115a79.539 79.539 0 0 0 -15.621 6.907v-82.707a24 24 0 0 0 -48 0v96a24.034 24.034 0 0 0 15.412 22.4 79.82 79.82 0 0 0 -7.412 33.6zm95.952-150.85-7.773 71.265a80.671 80.671 0 0 0 -8.179-.415q-3.972 0-7.913.39l7.958-72.974a8 8 0 0 1 15.907 1.734zm-87.952 94.85v-96a8 8 0 0 1 16 0v94.879a80.336 80.336 0 0 0 -7.984 9.121h-.016a8.009 8.009 0 0 1 -8-8zm136 56a64.062 64.062 0 1 1 -64-64 64.072 64.072 0 0 1 64 64zm-266.688-384a11.947 11.947 0 0 1 9.96 5.33l81.78 122.67h-28.771l-85.333-128zm43.74 128h-36.771l-64-96h35.719a7.938 7.938 0 0 0 1-.07zm-85.333-128 10.666 16h-36.77l-10.667-16zm-72.365 18.608a11.969 11.969 0 0 1 9.959-18.608 11.947 11.947 0 0 1 9.959 5.33l81.78 122.67h-28.77zm-67.354 125.392h448l.01 32h-448.01z"/><path d="m111.86 261.681a24 24 0 1 0 -47.717 5.2l10.408 95.434a24.005 24.005 0 0 0 23.813 21.4 24.332 24.332 0 0 0 2.648-.145 24 24 0 0 0 21.256-26.46zm-12.583 105.989a8 8 0 0 1 -8.82-7.086l-10.409-95.434a8.01 8.01 0 0 1 7.086-8.82 8.191 8.191 0 0 1 .883-.048 8 8 0 0 1 7.938 7.134l10.408 95.434a8.01 8.01 0 0 1 -7.086 8.82z"/><path d="m160 240a24.027 24.027 0 0 0 -24 24v96a24 24 0 0 0 48 0v-96a24.027 24.027 0 0 0 -24-24zm8 120a8 8 0 0 1 -16 0v-96a8 8 0 0 1 16 0z"/><path d="m224 240a24.027 24.027 0 0 0 -24 24v96a24 24 0 0 0 48 0v-96a24.027 24.027 0 0 0 -24-24zm8 120a8 8 0 0 1 -16 0v-96a8 8 0 0 1 16 0z"/><path d="m288 240a24.027 24.027 0 0 0 -24 24v96a24 24 0 0 0 48 0v-96a24.027 24.027 0 0 0 -24-24zm8 120a8 8 0 0 1 -16 0v-96a8 8 0 0 1 16 0z"/><path d="m440 392v-16a8 8 0 0 0 -8-8h-32a8 8 0 0 0 -8 8v16h-16a8 8 0 0 0 -8 8v32a8 8 0 0 0 8 8h16v16a8 8 0 0 0 8 8h32a8 8 0 0 0 8-8v-16h16a8 8 0 0 0 8-8v-32a8 8 0 0 0 -8-8zm8 32h-16a8 8 0 0 0 -8 8v16h-16v-16a8 8 0 0 0 -8-8h-16v-16h16a8 8 0 0 0 8-8v-16h16v16a8 8 0 0 0 8 8h16z"/></g></svg>