<?xml version="1.0" encoding="UTF-8"?>
<!DOCTYPE svg PUBLIC "-//W3C//DTD SVG 1.1//EN" "http://www.w3.org/Graphics/SVG/1.1/DTD/svg11.dtd">
<!-- Creator: CorelDRAW X7 -->
<svg xmlns="http://www.w3.org/2000/svg" xml:space="preserve" width="47.625mm" height="9.6457mm" version="1.1" style="shape-rendering:geometricPrecision; text-rendering:geometricPrecision; image-rendering:optimizeQuality; fill-rule:evenodd; clip-rule:evenodd"
viewBox="0 0 1692 343"
 xmlns:xlink="http://www.w3.org/1999/xlink">
 <defs>
  <style type="text/css">
   <![CDATA[
    .str0 {stroke:white;stroke-width:6.26521}
    .fil2 {fill:none}
    .fil1 {fill:#332C2B}
    .fil0 {fill:#332C2B;fill-rule:nonzero}
   ]]>
  </style>
 </defs>
 <g id="Layer_x0020_1">
  <metadata id="CorelCorpID_0Corel-Layer"/>
  <g id="_2089299219648">
   <path class="fil0" d="M1388 211c0,-17 3,-32 10,-44 7,-13 16,-23 28,-30 12,-7 26,-10 40,-10 15,0 27,3 38,9 10,6 18,14 23,23l0 -30 28 0 0 165 -28 0 0 -31c-5,10 -13,18 -24,24 -10,7 -23,10 -37,10 -15,0 -28,-4 -40,-11 -12,-7 -21,-17 -28,-30 -7,-13 -10,-28 -10,-45zm139 0c0,-12 -2,-23 -7,-32 -5,-9 -12,-16 -20,-21 -9,-5 -18,-8 -28,-8 -11,0 -20,3 -28,8 -9,4 -16,11 -21,21 -5,9 -7,20 -7,32 0,13 2,24 7,33 5,9 12,16 21,21 8,5 17,8 28,8 10,0 19,-3 28,-8 8,-5 15,-12 20,-21 5,-9 7,-20 7,-33z"/>
   <polygon class="fil0" points="1368,294 1304,221 1304,294 1276,294 1276,72 1304,72 1304,202 1367,129 1405,129 1328,211 1406,294 "/>
   <polygon class="fil0" points="1256,129 1256,294 1228,294 1228,129 "/>
   <path class="fil0" d="M1041 211c0,-17 3,-32 10,-44 7,-13 16,-23 28,-30 12,-7 26,-10 40,-10 13,0 25,3 36,8 11,6 20,14 25,24l0 -87 28 0 0 222 -28 0 0 -31c-5,10 -13,18 -24,24 -10,7 -23,10 -37,10 -15,0 -28,-4 -40,-11 -12,-7 -21,-17 -28,-30 -7,-13 -10,-28 -10,-45zm139 0c0,-12 -2,-23 -7,-32 -5,-9 -12,-16 -20,-21 -9,-5 -18,-8 -29,-8 -10,0 -19,3 -27,8 -9,4 -16,11 -21,21 -5,9 -7,20 -7,32 0,13 2,24 7,33 5,9 12,16 21,21 8,5 17,8 27,8 11,0 20,-3 29,-8 8,-5 15,-12 20,-21 5,-9 7,-20 7,-33z"/>
   <path class="fil0" d="M961 126c20,0 37,6 49,18 13,13 19,30 19,53l0 97 -27 0 0 -93c0,-17 -4,-29 -13,-38 -8,-9 -19,-13 -33,-13 -15,0 -26,5 -35,14 -8,9 -13,22 -13,39l0 91 -27 0 0 -165 27 0 0 24c6,-9 13,-15 23,-20 9,-4 19,-7 30,-7z"/>
   <path class="fil0" d="M694 211c0,-17 3,-32 10,-44 7,-13 16,-23 28,-30 12,-7 25,-10 40,-10 14,0 27,3 37,9 11,6 19,14 24,23l0 -30 28 0 0 165 -28 0 0 -31c-5,10 -13,18 -24,24 -11,7 -23,10 -38,10 -14,0 -27,-4 -39,-11 -12,-7 -21,-17 -28,-30 -7,-13 -10,-28 -10,-45zm139 0c0,-12 -2,-23 -7,-32 -5,-9 -12,-16 -21,-21 -8,-5 -18,-8 -28,-8 -10,0 -19,3 -28,8 -8,4 -15,11 -20,21 -5,9 -7,20 -7,32 0,13 2,24 7,33 5,9 12,16 20,21 9,5 18,8 28,8 10,0 20,-3 28,-8 9,-5 16,-12 21,-21 5,-9 7,-20 7,-33z"/>
   <path class="fil0" d="M624 297c-13,0 -24,-2 -34,-7 -10,-4 -18,-10 -24,-18 -6,-7 -9,-16 -9,-26l28 0c1,8 5,15 12,20 6,5 15,8 27,8 10,0 18,-3 24,-7 6,-5 9,-11 9,-18 0,-7 -3,-12 -9,-16 -7,-3 -17,-7 -30,-10 -12,-3 -22,-7 -30,-10 -8,-3 -14,-8 -20,-15 -5,-6 -8,-15 -8,-25 0,-9 2,-17 7,-24 5,-7 13,-12 22,-16 9,-4 20,-6 31,-6 19,0 33,4 45,13 11,10 17,22 18,38l-28 0c0,-8 -4,-15 -10,-20 -6,-6 -15,-8 -25,-8 -10,0 -18,2 -24,6 -6,4 -9,10 -9,17 0,5 2,9 6,13 3,3 8,6 13,8 5,2 13,5 22,7 12,4 21,7 29,10 7,3 14,8 19,14 5,6 8,14 8,24 0,9 -2,17 -7,25 -5,7 -12,12 -22,17 -9,4 -19,6 -31,6z"/>
   <polygon class="fil0" points="1256,102 1229,102 1229,71 1256,71 "/>
   <path class="fil1" d="M335 127c-7,8 -13,15 -18,19l-60 65c-5,5 -7,7 -12,13 -4,5 -8,8 -12,13 -4,4 -7,8 -11,12 -9,9 -15,16 -24,25 -7,6 -7,6 -19,5 -86,-2 -87,-92 -42,-119 13,-7 30,-10 48,-10 4,0 53,1 53,1 7,-1 24,-23 25,-25 -41,0 -45,0 -85,-1 -36,-1 -63,10 -82,38 -9,14 -14,29 -15,43l0 13c2,45 39,85 87,86 0,0 35,0 35,0l126 -134c18,-18 10,-18 29,-18 75,2 85,69 61,102 -13,18 -32,28 -63,27 -31,0 -15,-1 -46,0 -8,10 -19,20 -22,25 41,1 32,0 73,1 21,1 35,-2 48,-10 15,-9 23,-15 32,-29 19,-28 23,-62 5,-94 -13,-24 -38,-46 -75,-47 0,0 -36,-1 -36,-1z"/>
   <rect class="fil2 str0" x="524" y="3" width="1087" height="336"/>
  </g>
  <rect class="fil2" y="2" width="1692" height="338"/>
 </g>
</svg>
