<?xml version="1.0" encoding="UTF-8"?>
<!DOCTYPE svg PUBLIC "-//W3C//DTD SVG 1.1//EN" "http://www.w3.org/Graphics/SVG/1.1/DTD/svg11.dtd">
<!-- Creator: CorelDRAW X7 -->
<svg xmlns="http://www.w3.org/2000/svg" xml:space="preserve" width="30.7799mm" height="9.6457mm" version="1.1" style="shape-rendering:geometricPrecision; text-rendering:geometricPrecision; image-rendering:optimizeQuality; fill-rule:evenodd; clip-rule:evenodd"
viewBox="0 0 904 283"
 xmlns:xlink="http://www.w3.org/1999/xlink">
 <defs>
  <style type="text/css">
   <![CDATA[
    .str0 {stroke:white;stroke-width:5.18252}
    .fil1 {fill:none}
    .fil0 {fill:#332C2B;fill-rule:nonzero}
   ]]>
  </style>
 </defs>
 <g id="Layer_x0020_1">
  <metadata id="CorelCorpID_0Corel-Layer"/>
  <path class="fil0" d="M717 175c0,-14 3,-27 9,-37 5,-11 13,-19 23,-25 10,-5 21,-8 33,-8 12,0 22,2 31,7 9,6 15,12 20,20l0 -25 23 0 0 136 -23 0 0 -25c-5,8 -11,14 -20,20 -9,5 -19,7 -31,7 -12,0 -23,-3 -33,-8 -10,-6 -18,-15 -23,-26 -6,-10 -9,-23 -9,-36zm116 0c0,-10 -2,-19 -6,-27 -5,-8 -10,-14 -17,-18 -7,-4 -15,-6 -23,-6 -9,0 -17,2 -24,6 -7,4 -12,10 -16,18 -4,7 -7,16 -7,27 0,10 3,19 7,27 4,8 9,13 16,17 7,5 15,7 24,7 8,0 16,-2 23,-7 7,-4 12,-9 17,-17 4,-8 6,-17 6,-27z"/>
  <polygon class="fil0" points="701,243 648,183 648,243 625,243 625,59 648,59 648,167 700,107 732,107 668,175 732,243 "/>
  <polygon class="fil0" points="608,107 608,243 585,243 585,107 "/>
  <path class="fil0" d="M430 175c0,-14 3,-27 9,-37 5,-11 13,-19 23,-25 10,-5 21,-8 33,-8 11,0 21,2 30,7 9,5 16,11 21,19l0 -72 23 0 0 184 -23 0 0 -25c-5,8 -11,14 -20,20 -9,5 -19,7 -31,7 -12,0 -23,-3 -33,-8 -10,-6 -18,-15 -23,-26 -6,-10 -9,-23 -9,-36zm116 0c0,-10 -2,-19 -7,-27 -4,-8 -9,-14 -16,-18 -7,-4 -15,-6 -24,-6 -8,0 -16,2 -23,6 -7,4 -12,10 -16,18 -5,7 -7,16 -7,27 0,10 2,19 7,27 4,8 9,13 16,17 7,5 15,7 23,7 9,0 17,-2 24,-7 7,-4 12,-9 16,-17 5,-8 7,-17 7,-27z"/>
  <path class="fil0" d="M364 104c17,0 31,5 41,15 10,11 15,25 15,44l0 80 -22 0 0 -77c0,-13 -4,-24 -10,-31 -7,-7 -16,-11 -28,-11 -12,0 -22,4 -29,11 -7,8 -10,19 -10,33l0 75 -23 0 0 -136 23 0 0 19c4,-7 10,-12 18,-16 8,-4 16,-6 25,-6z"/>
  <path class="fil0" d="M143 175c0,-14 3,-27 8,-37 6,-11 14,-19 24,-25 10,-5 21,-8 33,-8 12,0 22,2 31,7 9,6 15,12 19,20l0 -25 23 0 0 136 -23 0 0 -25c-4,8 -11,14 -20,20 -9,5 -19,7 -31,7 -12,0 -23,-3 -32,-8 -10,-6 -18,-15 -24,-26 -5,-10 -8,-23 -8,-36zm115 0c0,-10 -2,-19 -6,-27 -4,-8 -10,-14 -17,-18 -7,-4 -14,-6 -23,-6 -8,0 -16,2 -23,6 -7,4 -13,10 -17,18 -4,7 -6,16 -6,27 0,10 2,19 6,27 4,8 10,13 17,17 7,5 15,7 23,7 9,0 16,-2 23,-7 7,-4 13,-9 17,-17 4,-8 6,-17 6,-27z"/>
  <path class="fil0" d="M85 245c-10,0 -19,-1 -28,-5 -8,-3 -15,-8 -19,-15 -5,-6 -8,-14 -8,-22l23 0c1,7 4,13 10,17 5,4 13,6 22,6 9,0 16,-2 21,-5 5,-4 7,-9 7,-15 0,-6 -3,-10 -8,-13 -5,-3 -13,-6 -25,-9 -10,-2 -18,-5 -24,-8 -7,-3 -12,-7 -17,-12 -4,-5 -7,-12 -7,-21 0,-7 3,-14 7,-19 4,-6 10,-11 17,-14 8,-4 17,-5 26,-5 16,0 28,4 37,11 9,8 14,18 15,31l-23 0c0,-7 -3,-12 -8,-17 -6,-4 -13,-6 -21,-6 -8,0 -15,2 -20,5 -5,4 -7,8 -7,14 0,4 2,8 4,11 3,3 7,5 11,7 5,2 11,3 19,6 9,2 17,5 24,7 6,3 11,7 15,12 5,5 7,12 7,20 0,8 -2,14 -6,20 -4,6 -10,11 -18,14 -7,4 -16,5 -26,5z"/>
  <polygon class="fil0" points="609,84 586,84 586,59 609,59 "/>
  <rect class="fil1 str0" x="3" y="3" width="899" height="278"/>
 </g>
</svg>
