<?xml version="1.0" encoding="UTF-8"?>
<!DOCTYPE svg PUBLIC "-//W3C//DTD SVG 1.1//EN" "http://www.w3.org/Graphics/SVG/1.1/DTD/svg11.dtd">
<!-- Creator: CorelDRAW X7 -->
<svg xmlns="http://www.w3.org/2000/svg" xml:space="preserve" width="12.7882mm" height="7.0997mm" version="1.1" style="shape-rendering:geometricPrecision; text-rendering:geometricPrecision; image-rendering:optimizeQuality; fill-rule:evenodd; clip-rule:evenodd"
viewBox="0 0 121 67"
 xmlns:xlink="http://www.w3.org/1999/xlink">
 <defs>
  <style type="text/css">
   <![CDATA[
    .str0 {stroke:white;stroke-width:1.67192}
    .fil1 {fill:none}
    .fil0 {fill:#332C2B}
   ]]>
  </style>
 </defs>
 <g id="Layer_x0020_1">
  <metadata id="CorelCorpID_0Corel-Layer"/>
  <path class="fil0" d="M78 10c-2,2 -3,4 -5,5l-15 17c-2,2 -3,2 -4,4 -1,1 -2,2 -3,3 -1,1 -2,2 -3,3 -2,3 -4,5 -6,7 -2,2 -2,2 -5,1 -23,0 -24,-24 -12,-31 4,-2 8,-3 13,-3 1,0 14,0 14,0 2,0 7,-6 7,-6 -11,-1 -12,-1 -23,-1 -9,0 -16,3 -22,10 -2,4 -3,8 -4,12l0 3c1,12 11,23 24,23 0,0 9,0 9,0l33 -36c5,-4 3,-4 8,-4 20,0 23,18 17,27 -4,5 -9,7 -17,7 -9,0 -4,0 -13,0 -2,3 -5,5 -5,7 11,0 8,0 19,0 6,0 9,-1 13,-3 4,-2 6,-4 9,-7 5,-8 5,-17 1,-25 -4,-7 -10,-13 -20,-13 0,0 -10,0 -10,0z"/>
  <rect class="fil1 str0" x="1" y="1" width="119.534" height="65.6189"/>
 </g>
</svg>
