<?xml version="1.0" encoding="UTF-8"?>
<!DOCTYPE svg PUBLIC "-//W3C//DTD SVG 1.1//EN" "http://www.w3.org/Graphics/SVG/1.1/DTD/svg11.dtd">
<!-- Creator: CorelDRAW X7 -->
<svg xmlns="http://www.w3.org/2000/svg" xml:space="preserve" width="33.3376mm" height="21.5195mm" version="1.1" style="shape-rendering:geometricPrecision; text-rendering:geometricPrecision; image-rendering:optimizeQuality; fill-rule:evenodd; clip-rule:evenodd"
viewBox="0 0 8545 5516"
 xmlns:xlink="http://www.w3.org/1999/xlink">
 <defs>
  <style type="text/css">
   <![CDATA[
    .fil2 {fill:none}
    .fil1 {fill:#332C2B}
    .fil0 {fill:#332C2B;fill-rule:nonzero}
   ]]>
  </style>
 </defs>
 <g id="Layer_x0020_1">
  <metadata id="CorelCorpID_0Corel-Layer"/>
  <g id="_2089292543888">
   <path class="fil0" d="M6698 4562c0,-123 25,-231 74,-324 50,-93 119,-166 206,-217 87,-51 184,-77 291,-77 105,0 197,23 274,68 78,46 136,103 174,172l0 -220 202 0 0 1204 -202 0 0 -224c-40,70 -99,128 -177,174 -78,46 -170,69 -273,69 -107,0 -204,-26 -290,-79 -87,-52 -155,-126 -205,-221 -49,-96 -74,-204 -74,-325zm1019 2c0,-91 -19,-170 -55,-237 -37,-68 -86,-119 -148,-155 -63,-36 -131,-54 -206,-54 -74,0 -142,17 -204,53 -62,35 -111,86 -147,153 -37,68 -55,147 -55,238 0,92 18,172 55,240 36,68 85,120 147,156 62,36 130,54 204,54 75,0 143,-18 206,-54 62,-36 111,-88 148,-156 36,-68 55,-148 55,-238z"/>
   <polygon class="fil0" points="6555,5168 6083,4636 6083,5168 5883,5168 5883,3542 6083,3542 6083,4498 6546,3964 6825,3964 6258,4564 6827,5168 "/>
   <polygon class="fil0" points="5732,3964 5732,5168 5532,5168 5532,3964 "/>
   <path class="fil0" d="M4163 4562c0,-123 25,-231 74,-324 50,-93 119,-166 206,-217 87,-51 185,-77 293,-77 94,0 181,22 261,65 81,43 142,100 185,170l0 -637 202 0 0 1626 -202 0 0 -227c-40,72 -98,131 -176,177 -78,46 -168,69 -272,69 -107,0 -204,-26 -291,-79 -87,-52 -156,-126 -206,-221 -49,-96 -74,-204 -74,-325zm1019 2c0,-91 -19,-170 -55,-237 -37,-68 -86,-119 -148,-155 -63,-36 -131,-54 -206,-54 -74,0 -143,17 -204,53 -62,35 -111,86 -147,153 -37,68 -55,147 -55,238 0,92 18,172 55,240 36,68 85,120 147,156 61,36 130,54 204,54 75,0 143,-18 206,-54 62,-36 111,-88 148,-156 36,-68 55,-148 55,-238z"/>
   <path class="fil0" d="M3582 3942c146,0 265,44 356,133 91,89 136,216 136,383l0 710 -198 0 0 -681c0,-120 -30,-212 -90,-276 -60,-63 -142,-95 -246,-95 -105,0 -189,33 -251,99 -63,65 -94,161 -94,287l0 666 -199 0 0 -1204 199 0 0 171c40,-61 94,-109 162,-142 68,-34 143,-51 225,-51z"/>
   <path class="fil0" d="M1626 4562c0,-123 25,-231 75,-324 49,-93 118,-166 205,-217 87,-51 184,-77 291,-77 105,0 197,23 274,68 78,46 136,103 174,172l0 -220 202 0 0 1204 -202 0 0 -224c-40,70 -99,128 -177,174 -78,46 -169,69 -273,69 -107,0 -204,-26 -290,-79 -87,-52 -155,-126 -204,-221 -50,-96 -75,-204 -75,-325zm1019 2c0,-91 -18,-170 -55,-237 -37,-68 -86,-119 -148,-155 -62,-36 -131,-54 -206,-54 -74,0 -142,17 -204,53 -61,35 -110,86 -147,153 -37,68 -55,147 -55,238 0,92 18,172 55,240 37,68 86,120 147,156 62,36 130,54 204,54 75,0 144,-18 206,-54 62,-36 111,-88 148,-156 37,-68 55,-148 55,-238z"/>
   <path class="fil0" d="M1118 5187c-92,0 -175,-15 -248,-47 -73,-31 -131,-75 -174,-132 -42,-56 -66,-121 -70,-194l207 0c5,60 34,109 84,147 51,38 117,57 199,57 76,0 136,-16 180,-50 44,-34 66,-76 66,-128 0,-52 -24,-91 -70,-117 -47,-26 -120,-51 -218,-76 -89,-23 -162,-47 -218,-71 -57,-24 -105,-60 -145,-108 -41,-47 -61,-110 -61,-188 0,-61 18,-117 55,-169 37,-51 89,-92 156,-122 67,-30 144,-45 231,-45 133,0 241,34 323,101 82,68 125,160 131,277l-200 0c-4,-63 -29,-113 -75,-151 -46,-38 -108,-58 -186,-58 -72,0 -129,16 -171,47 -43,30 -64,71 -64,120 0,40 13,73 39,98 25,26 57,46 96,62 39,15 93,32 162,51 86,24 156,47 210,69 55,23 101,57 140,103 39,45 59,104 60,177 0,66 -18,126 -55,178 -36,53 -88,94 -154,124 -67,30 -144,45 -230,45z"/>
   <polygon class="fil0" points="5737,3763 5534,3763 5534,3538 5737,3538 "/>
  </g>
  <path class="fil1" d="M5039 704c-88,96 -156,171 -209,221l-692 751c-58,61 -92,87 -143,149 -50,59 -90,91 -143,148 -49,54 -78,96 -129,145 -104,99 -170,183 -277,286 -73,71 -81,69 -218,65 -991,-26 -1010,-1066 -480,-1381 141,-84 342,-115 556,-120 37,-1 612,12 612,12 73,-14 275,-266 285,-285 -468,-7 -518,-7 -986,-16 -414,-8 -721,118 -943,447 -107,159 -164,328 -179,495l-2 149c29,522 452,986 1006,995 0,0 409,1 409,1l1455 -1557c210,-204 126,-208 336,-203 874,22 986,795 710,1178 -154,213 -367,325 -733,318 -359,-6 -172,-14 -529,-6 -88,121 -220,234 -249,293 467,7 368,4 835,13 244,5 408,-30 563,-119 170,-98 261,-172 372,-337 217,-320 258,-717 61,-1082 -153,-282 -451,-541 -878,-548 0,0 -410,-12 -410,-12z"/>
  <rect class="fil2" width="8545" height="5516"/>
 </g>
</svg>
